<svg width="40" height="40" viewBox="0 0 40 40" fill="none" xmlns="http://www.w3.org/2000/svg">
<g clip-path="url(#clip0_408_314)">
<path fill-rule="evenodd" clip-rule="evenodd" d="M20.1392 0C9.32314 0 0.547852 8.77529 0.547852 19.5913C0.547852 30.4074 9.32314 39.1827 20.1392 39.1827C30.934 39.1827 39.7305 30.4074 39.7305 19.5913C39.7305 8.77529 30.934 0 20.1392 0ZM33.0793 9.02998C35.4172 11.8773 36.8196 15.5114 36.862 19.4428C36.3102 19.3367 30.7855 18.2102 25.2166 18.9105C25.0893 18.6346 24.9832 18.3375 24.8558 18.0404C24.5162 17.2322 24.1326 16.4045 23.7505 15.6176C29.9136 13.1099 32.7185 9.49854 33.0793 9.02998ZM22.4542 13.1311C19.7131 8.09612 16.6748 3.97215 16.2079 3.33543C17.4617 3.03829 18.7792 2.88972 20.1392 2.88972C24.3889 2.88972 28.2778 4.48315 31.2312 7.09697C30.934 7.52144 28.4051 10.901 22.4542 13.1311ZM13.021 4.46193C13.4667 5.0562 16.4413 9.19977 19.2249 14.1303C11.4047 16.2118 4.49877 16.171 3.75593 16.171C4.83999 10.9858 8.34684 6.67249 13.021 4.46193ZM3.39513 19.1016C4.11674 19.1228 12.2341 19.2289 20.5849 16.7228C21.0747 17.6567 21.5204 18.6134 21.9449 19.5701C21.7326 19.6338 21.4992 19.6975 21.2853 19.7611C12.6586 22.5447 8.0693 30.1527 7.68563 30.7894C5.02937 27.836 3.39349 23.9047 3.39349 19.6126L3.39513 19.1016ZM23.0077 22.3537C23.0501 22.3325 23.0714 22.3325 23.1138 22.3113C25.4729 28.4091 26.4297 33.5306 26.6843 34.9967C24.6648 35.8685 22.4559 36.3354 20.1392 36.3354C16.2715 36.3354 12.7026 35.0179 9.8766 32.809C10.1737 32.1918 13.5728 25.6467 23.0077 22.3537ZM29.4679 33.4669C29.2982 32.4465 28.4051 27.5601 26.2174 21.5456C31.4663 20.7178 36.0555 22.0778 36.6286 22.2688C35.9053 26.9218 33.2295 30.938 29.4679 33.4669Z" fill="#A5A5A5"/>
</g>
<defs>
<clipPath id="clip0_408_314">
<rect width="39.1827" height="39.1827" fill="white" transform="translate(0.547852)"/>
</clipPath>
</defs>
</svg>
