<svg width="40" height="40" viewBox="0 0 40 40" fill="none" xmlns="http://www.w3.org/2000/svg">
<g clip-path="url(#clip0_408_317)">
<path d="M16.1268 20.4829C17.0469 21.3994 18.2926 21.9139 19.5912 21.9139C20.8898 21.9139 22.1355 21.3994 23.0556 20.4829L38.825 4.71192C38.462 3.80415 37.8356 3.0258 37.0264 2.47705C36.2173 1.92831 35.2624 1.63428 34.2847 1.63281H4.89772C3.92004 1.63428 2.96518 1.92831 2.15603 2.47705C1.34687 3.0258 0.720464 3.80415 0.357422 4.71192L16.1268 20.4829Z" fill="#A5A5A5"/>
<path d="M25.3643 22.7914C23.8318 24.3199 21.7558 25.1783 19.5913 25.1783C17.4269 25.1783 15.3508 24.3199 13.8184 22.7914L0 8.97949V37.5502H39.1827V8.97949L25.3643 22.7914Z" fill="#A5A5A5"/>
</g>
<defs>
<clipPath id="clip0_408_317">
<rect width="39.1827" height="39.1827" fill="white"/>
</clipPath>
</defs>
</svg>
