<svg width="40" height="40" viewBox="0 0 40 40" fill="none" xmlns="http://www.w3.org/2000/svg">
<g clip-path="url(#clip0_408_325)">
<path fill-rule="evenodd" clip-rule="evenodd" d="M19.9566 0.483398C9.13726 0.483398 0.365234 9.25379 0.365234 20.0747C0.365234 28.7309 5.97816 36.0743 13.7625 38.6653C14.742 38.8465 15.1012 38.2408 15.1012 37.7233C15.1012 37.2564 15.0832 35.7135 15.0751 34.076C9.62541 35.2613 8.47442 31.7642 8.47442 31.7642C7.58301 29.4998 6.29978 28.8974 6.29978 28.8974C4.52187 27.6811 6.43365 27.7072 6.43365 27.7072C8.40095 27.846 9.43603 29.7267 9.43603 29.7267C11.1829 32.721 14.0188 31.8557 15.1371 31.3545C15.3134 30.0876 15.8212 29.2239 16.3812 28.7341C12.0302 28.2394 7.45567 26.5595 7.45567 19.0527C7.45567 16.914 8.22136 15.1655 9.47521 13.7941C9.27113 13.2994 8.60013 11.3076 9.66459 8.60891C9.66459 8.60891 11.3103 8.08321 15.0538 10.617C16.6163 10.1827 18.2913 9.96561 19.9566 9.95745C21.6218 9.96561 23.2985 10.1827 24.8642 10.617C28.6029 8.08158 30.2469 8.60891 30.2469 8.60891C31.313 11.3076 30.642 13.2994 30.4396 13.7941C31.6951 15.1655 32.4559 16.914 32.4559 19.0527C32.4559 26.5774 27.8731 28.2345 23.5108 28.7194C24.2128 29.3268 24.8397 30.5202 24.8397 32.3471C24.8397 34.9691 24.8169 37.0784 24.8169 37.7233C24.8169 38.2441 25.1695 38.8563 26.1621 38.6637C33.9432 36.0694 39.5496 28.7292 39.5496 20.0764C39.5479 9.25542 30.7759 0.483398 19.9566 0.483398Z" fill="#A5A5A5"/>
<path d="M7.78529 28.6136C7.74284 28.7116 7.58937 28.741 7.44897 28.674C7.30693 28.6104 7.22693 28.4765 7.27264 28.3802C7.31509 28.2806 7.46856 28.2528 7.6106 28.3198C7.75263 28.3818 7.83426 28.5157 7.78529 28.6136Z" fill="#A5A5A5"/>
<path d="M8.57859 29.4978C8.48553 29.5843 8.30268 29.5435 8.1786 29.408C8.04962 29.2708 8.02676 29.088 8.12146 29.0014C8.21778 28.9149 8.3941 28.9557 8.52308 29.0929C8.65206 29.2284 8.67654 29.4096 8.57859 29.4978Z" fill="#A5A5A5"/>
<path d="M9.35099 30.6261C9.23018 30.7094 9.03426 30.631 8.91345 30.458C8.79263 30.2833 8.79263 30.0743 8.91671 29.9911C9.03753 29.9078 9.23181 29.9829 9.35425 30.1559C9.47343 30.3323 9.47343 30.5412 9.35099 30.6261Z" fill="#A5A5A5"/>
<path d="M10.4087 31.7168C10.3009 31.836 10.0724 31.8033 9.90584 31.6417C9.73442 31.4833 9.68707 31.2596 9.79482 31.1405C9.90421 31.0213 10.1344 31.0556 10.3026 31.2156C10.4724 31.3739 10.523 31.5992 10.4087 31.7168Z" fill="#A5A5A5"/>
<path d="M11.8706 32.3488C11.8233 32.5023 11.6029 32.5725 11.3808 32.5072C11.1588 32.4403 11.0135 32.2607 11.0592 32.1056C11.1049 31.9505 11.3269 31.8787 11.5506 31.9489C11.771 32.0142 11.9163 32.1938 11.8706 32.3488Z" fill="#A5A5A5"/>
<path d="M13.4733 32.4665C13.4782 32.6281 13.2904 32.762 13.057 32.7653C12.8235 32.7702 12.6325 32.6396 12.6309 32.4812C12.6309 32.3179 12.8153 32.1857 13.0488 32.1808C13.2823 32.1759 13.4733 32.3065 13.4733 32.4665Z" fill="#A5A5A5"/>
<path d="M14.9656 32.2133C14.9933 32.37 14.8317 32.5332 14.5999 32.5757C14.3729 32.6181 14.1623 32.5202 14.1329 32.3635C14.1052 32.2018 14.2701 32.0402 14.497 31.9978C14.7272 31.9569 14.9362 32.0516 14.9656 32.2133Z" fill="#A5A5A5"/>
</g>
<defs>
<clipPath id="clip0_408_325">
<rect width="39.1827" height="39.1827" fill="white" transform="translate(0.365234)"/>
</clipPath>
</defs>
</svg>
