<svg width="39" height="39" viewBox="0 0 39 39" fill="none" xmlns="http://www.w3.org/2000/svg">
<path d="M33.1411 33.1413H27.3777V24.1158C27.3777 21.9633 27.3393 19.1938 24.38 19.1938C21.3785 19.1938 20.9185 21.5378 20.9185 23.9605V33.1413H15.157V14.5803H20.6904V17.1161H20.7671C21.896 15.1879 23.9928 14.036 26.2258 14.1184C32.0678 14.1184 33.143 17.9613 33.143 22.9581L33.1411 33.1413ZM8.65375 12.0427C6.80608 12.0427 5.30917 10.5458 5.30917 8.6981C5.30917 6.85043 6.80608 5.35351 8.65375 5.35351C10.5014 5.35351 11.9983 6.85043 11.9983 8.6981C11.9983 10.5458 10.5014 12.0427 8.65375 12.0427ZM11.5345 33.1413H5.76533V14.5803H11.5345V33.1413ZM36.0142 0.00217847H2.86925C1.30333 -0.0150715 0.0191667 1.24035 0 2.80626V36.0873C0.0191667 37.6551 1.30333 38.9105 2.86925 38.8933H36.0142C37.5839 38.9124 38.8738 37.657 38.8949 36.0873V2.80434C38.8719 1.23459 37.582 -0.0208216 36.0142 0.000261712" fill="#A5A5A5"/>
</svg>
